<?xml version="1.0" encoding="UTF-8"?>
<svg width="883px" height="1063px" viewBox="0 0 883 1063" version="1.1" xmlns="http://www.w3.org/2000/svg" xmlns:xlink="http://www.w3.org/1999/xlink">
    <!-- Generator: Sketch 52.6 (67491) - http://www.bohemiancoding.com/sketch -->
    <title>Group 155</title>
    <desc>Created with Sketch.</desc>
    <g id="Page-1" stroke="none" stroke-width="1" fill="none" fill-rule="evenodd">
        <g id="Group-155" transform="translate(5.000000, -1.000000)">
            <path d="M738.0845,880.9865 C730.9155,890.9145 721.2145,900.2635 709.2525,908.7775 C685.9915,925.3325 654.4875,938.5235 615.6165,947.9885 C566.9845,959.8305 506.6325,965.8345 436.2345,965.8345 C365.8375,965.8345 305.4845,959.8305 256.8545,947.9885 C217.9805,938.5235 186.4795,925.3325 163.2175,908.7775 C151.2555,900.2635 141.5545,890.9145 134.3855,880.9865 L120.4205,861.6505 L124.5075,885.1485 C128.6055,908.7155 135.9865,931.6605 146.4475,953.3455 L146.7615,953.9945 L147.2305,954.5415 C148.8325,956.4045 163.6795,973.2445 191.5945,991.1275 C217.8375,1007.9375 261.3975,1029.0395 319.8775,1034.0995 L321.9095,1034.2755 L323.5645,1033.0845 C330.2665,1028.2595 335.8465,1023.7115 339.3485,1020.7425 L347.9575,1013.4455 C370.9515,1016.1315 400.2565,1018.1685 436.2345,1018.1685 C472.2855,1018.1685 501.5735,1016.1425 524.5385,1013.4665 L533.1225,1020.7425 C536.6215,1023.7095 542.2005,1028.2575 548.9065,1033.0845 L550.5625,1034.2755 L552.5945,1034.0995 C611.0745,1029.0395 654.6325,1007.9375 680.8755,991.1275 C708.7425,973.2755 723.6305,956.4085 725.2345,954.5435 L725.7085,953.9965 L726.0215,953.3435 C736.4805,931.6605 743.8625,908.7165 747.9625,885.1485 L752.0495,861.6505 L738.0845,880.9865 Z" id="Fill-1" fill="#98673A"></path>
            <path d="M738.0845,871.9064 C730.9155,881.2794 721.2145,890.1074 709.2525,898.1444 C685.9915,913.7734 654.4875,926.2284 615.6165,935.1664 C566.9845,946.3454 506.6325,952.0134 436.2345,952.0134 C365.8375,952.0134 305.4845,946.3454 256.8545,935.1664 C217.9805,926.2284 186.4795,913.7734 163.2175,898.1444 C151.2555,890.1074 141.5545,881.2794 134.3855,871.9064 L120.4205,853.6504 L124.5075,875.8364 C128.6055,898.0884 135.9865,919.7504 146.4475,940.2224 L146.7615,940.8364 L147.2305,941.3514 C148.8325,943.1114 163.6795,959.0104 191.5945,975.8924 C217.8375,991.7654 261.3975,1011.6874 319.8775,1016.4654 L321.9095,1016.6314 L323.5645,1015.5064 C330.2665,1010.9534 542.2005,1010.9494 548.9065,1015.5064 L550.5625,1016.6314 L552.5945,1016.4654 C611.0745,1011.6874 654.6325,991.7654 680.8755,975.8924 C708.7425,959.0394 723.6305,943.1154 725.2345,941.3534 L725.7085,940.8364 L726.0215,940.2224 C736.4805,919.7504 743.8625,898.0884 747.9625,875.8364 L752.0495,853.6504 L738.0845,871.9064 Z" id="Fill-3" fill="#BA7855"></path>
            <path d="M436.2349,1014.5197 C332.0309,1014.5197 286.3509,1005.4357 284.4579,1005.0487 C281.7529,1004.4967 280.0059,1001.8557 280.5589,999.1507 C281.1119,996.4437 283.7469,994.6997 286.4559,995.2497 C286.9119,995.3437 333.2429,1004.5197 436.2349,1004.5197 C539.2269,1004.5197 585.5579,995.3437 586.0139,995.2497 C588.7189,994.7017 591.3589,996.4477 591.9109,999.1527 C592.4619,1001.8577 590.7169,1004.4967 588.0129,1005.0487 C586.1189,1005.4357 540.4389,1014.5197 436.2349,1014.5197" id="Fill-5" fill="#98673A"></path>
            <path d="M751.2349,839.4455 C750.3579,729.8655 693.1489,646.5335 692.5699,645.7035 C693.1019,646.4635 705.7549,664.6605 719.4289,695.9295 L730.2499,720.6745 L729.0059,693.6975 C727.6859,665.1115 723.6989,615.1585 720.6849,581.0695 L719.8899,572.0775 L676.1359,605.1495 L654.5189,615.1515 L660.8499,620.1875 C647.2969,635.0065 596.1519,673.3085 564.4769,684.7795 C533.1299,696.1315 512.4209,703.6295 494.3469,719.4455 C484.7369,727.8535 470.3059,750.1625 458.6239,787.5565 C444.1279,833.9575 436.6009,892.4125 436.2519,961.2935 L436.2349,964.5915 L436.2169,961.2935 C435.8689,892.4125 428.3419,833.9575 413.8459,787.5565 C402.1639,750.1625 387.7329,727.8535 378.1259,719.4455 C360.0479,703.6295 339.3389,696.1315 307.9929,684.7795 C276.3069,673.3045 225.1349,634.9765 211.6219,620.1805 L214.7339,615.2535 L199.1109,608.4495 L175.3139,589.8455 L152.0299,578.2355 L151.3899,585.5515 C148.3829,619.9755 144.7209,666.4615 143.4639,693.6975 L142.2189,720.6745 L153.0419,695.9295 C166.7149,664.6605 179.3679,646.4635 179.8999,645.7035 L179.8979,645.7075 C179.2939,646.5765 122.1109,729.8555 121.2349,839.4455 C121.1969,844.1855 121.3009,849.1095 121.5489,854.0765 L121.5679,854.4415 L121.6369,854.7975 C123.0119,861.7575 130.1429,886.3085 164.1529,910.0495 C200.4209,935.3635 276.1899,965.6755 431.1979,966.3185 L436.2259,966.3405 L436.2349,966.3405 L436.2439,966.3405 L441.2719,966.3185 C596.2799,965.6755 672.0489,935.3635 708.3169,910.0495 C742.3269,886.3085 749.4569,861.7575 750.8319,854.7975 L750.9019,854.4415 L750.9209,854.0765 C751.1679,849.1095 751.2729,844.1855 751.2349,839.4455" id="Fill-7" fill="#C38952"></path>
            <path d="M737.8032,816.4494 C736.9642,715.9314 682.1952,639.4904 681.6402,638.7284 C682.1502,639.4264 694.2622,656.1174 707.3542,684.8014 L717.7132,707.4984 L716.5222,682.7544 C715.2582,656.5314 711.4422,610.7094 708.5562,579.4394 L707.7952,571.1924 L665.9072,601.5284 L645.2112,610.7024 L651.2732,615.3234 C638.2962,628.9154 589.3332,664.0514 559.0092,674.5744 C528.9972,684.9844 509.1722,691.8634 491.8692,706.3734 C482.6682,714.0844 468.8532,734.5494 457.6682,768.8494 C443.7902,811.4144 436.5852,865.0354 436.2502,928.2204 L436.2352,931.2464 L436.2192,928.2204 C435.8842,865.0354 428.6792,811.4144 414.8012,768.8494 C403.6162,734.5494 389.8012,714.0864 380.6022,706.3734 C363.2962,691.8634 343.4712,684.9844 313.4602,674.5744 C283.1262,664.0474 234.1372,628.8894 221.1992,615.3164 L224.1782,610.7964 L209.2212,604.5564 L186.4392,587.4904 L164.1482,576.8394 L163.5352,583.5514 C160.6572,615.1284 157.1532,657.7694 155.9482,682.7544 L154.7562,707.5004 L165.1162,684.8014 C178.2072,656.1174 190.3212,639.4264 190.8282,638.7284 L190.8262,638.7324 C190.2482,639.5294 135.5042,715.9224 134.6662,816.4494 C134.6292,820.7974 134.7312,825.3124 134.9672,829.8694 L134.9852,830.2034 L135.0522,830.5314 C136.3672,836.9164 143.1962,859.4374 175.7542,881.2134 C210.4752,904.4334 283.0142,932.2404 431.4122,932.8304 L436.2262,932.8474 L436.2352,932.8474 L436.2432,932.8474 L441.0572,932.8304 C589.4552,932.2404 661.9942,904.4334 696.7152,881.2134 C729.2752,859.4374 736.1012,836.9164 737.4172,830.5314 L737.4852,830.2034 L737.5022,829.8694 C737.7392,825.3124 737.8402,820.7974 737.8032,816.4494" id="Fill-9" fill="#F7A272"></path>
            <path d="M49.6685,739.2111 C49.3575,740.5881 48.4815,741.7701 47.2525,742.4651 C38.7255,747.2891 7.7665,775.2741 5.1695,809.9711 C3.4775,832.6091 14.4945,853.4161 37.9205,871.8161 C57.4275,884.4381 76.4505,887.1411 91.5105,879.4281 C105.0225,872.5081 114.2555,857.5371 115.0315,841.2871 C115.7635,826.0101 108.9415,812.6191 96.3185,804.5471 C93.9915,803.0591 93.3135,799.9671 94.7995,797.6411 C96.2865,795.3151 99.3805,794.6351 101.7055,796.1211 C108.3545,800.3731 113.6915,805.8111 117.5935,812.0921 C120.9025,775.5101 129.7615,743.1171 138.8915,717.9001 C138.7555,717.5961 138.6415,717.2771 138.5685,716.9381 C136.0745,705.3051 144.3265,608.7541 146.7555,581.1911 L145.1475,580.3881 C125.6885,601.8831 64.4505,673.5371 49.6685,739.2111" id="Fill-11" fill="#A9D386"></path>
            <path d="M770.7642,796.1213 C773.0902,794.6353 776.1822,795.3143 777.6702,797.6423 C779.1582,799.9673 778.4782,803.0583 776.1512,804.5473 C763.5272,812.6193 756.7052,826.0103 757.4372,841.2873 C758.2142,857.5373 767.4482,872.5083 780.9592,879.4283 C796.0192,887.1423 815.0432,884.4373 834.5492,871.8163 C857.9752,853.4163 868.9932,832.6093 867.3002,809.9713 C864.7032,775.2733 833.7442,747.2893 825.2172,742.4653 C823.9892,741.7693 823.1112,740.5883 822.8012,739.2113 C807.5092,671.2773 742.5052,596.9373 725.4622,578.3443 C727.4992,601.2813 736.4902,704.8613 733.9012,716.9373 C733.8282,717.2773 733.7142,717.5963 733.5782,717.9003 C742.7082,743.1173 751.5662,775.5103 754.8762,812.0923 C758.7772,805.8103 764.1162,800.3733 770.7642,796.1213" id="Fill-13" fill="#A9D386"></path>
            <path d="M381.4165,715.6838 C398.6895,730.7988 425.2665,779.2988 436.2345,873.7148 C447.2045,779.2988 473.7785,730.7988 491.0545,715.6838 C509.8355,699.2478 532.0405,691.2068 562.7735,680.0798 C590.9785,669.8658 634.6525,637.7598 652.1075,621.7758 L635.0495,629.6688 L235.3095,629.6688 L223.3825,624.4738 C242.4455,641.1328 283.0005,670.4128 309.6935,680.0798 C340.4295,691.2068 362.6345,699.2478 381.4165,715.6838" id="Fill-15" fill="#86B85C"></path>
            <path d="M167.4897,979.4455 C193.4397,1019.0625 227.2287,1045.6115 255.4277,1052.3455 C271.4227,1055.7245 290.9437,1047.3265 307.3517,1037.2855 C253.9297,1030.4745 213.7697,1010.7325 188.8027,994.6815 C180.5687,989.3885 173.4677,984.1975 167.4897,979.4455" id="Fill-17" fill="#86B85C"></path>
            <path d="M147.0073,578.3444 C146.9333,579.1844 146.8483,580.1444 146.7553,581.1914 L156.3713,585.9874 C156.6733,582.5284 156.9703,579.1724 157.2593,575.9574 C157.5063,573.2074 155.4773,570.7774 152.7273,570.5324 C152.6533,570.5244 152.5833,570.5364 152.5103,570.5324 C152.5283,569.2044 152.0313,567.8724 151.0023,566.8744 C149.0203,564.9554 145.8563,565.0034 143.9323,566.9864 C143.3283,567.6084 140.3763,570.6774 135.8173,575.7364 L145.1473,580.3884 C145.8173,579.6484 146.4403,578.9634 147.0073,578.3444" id="Fill-19" fill="#006738"></path>
            <path d="M215.2944,616.7975 C213.4314,614.7585 210.2684,614.6175 208.2314,616.4805 C207.8934,616.7885 207.6274,617.1425 207.3954,617.5105 L223.3824,624.4735 C219.8974,621.4275 217.1274,618.8025 215.2944,616.7975" id="Fill-21" fill="#006738"></path>
            <path d="M657.1753,616.7975 C655.9083,618.1825 654.1943,619.8645 652.1083,621.7765 L663.9763,616.2845 C661.9383,614.6525 658.9643,614.8415 657.1753,616.7975" id="Fill-23" fill="#006738"></path>
            <path d="M728.5376,566.986 C726.6146,565.003 723.4506,564.955 721.4676,566.875 C720.4376,567.873 719.9416,569.205 719.9596,570.533 C719.8866,570.537 719.8156,570.524 719.7426,570.531 C716.9926,570.777 714.9636,573.208 715.2106,575.958 C715.3726,577.763 715.5376,579.623 715.7046,581.509 L731.2036,569.796 C729.7726,568.267 728.8456,567.303 728.5376,566.986" id="Fill-25" fill="#006738"></path>
            <path d="M359.8325,690.3459 C371.2735,695.6409 381.0325,701.4919 390.1245,709.4459 C399.7325,717.8539 414.1635,740.1619 425.8465,777.5569 C429.6165,789.6249 432.9115,802.5179 435.7345,816.1879 C438.5585,802.5179 441.8535,789.6249 445.6235,777.5569 C457.3065,740.1619 471.7365,717.8539 481.3475,709.4459 C490.3615,701.5569 500.0315,695.7389 511.3505,690.4789 C487.8845,692.8789 462.8755,694.1429 436.2345,694.1429 C409.1055,694.1429 383.6695,692.8319 359.8325,690.3459" id="Fill-27" fill="#A9D386"></path>
            <path d="M163.4897,981.4455 C186.6557,1021.0625 216.8187,1047.6115 241.9917,1054.3455 C256.2697,1057.7245 273.6977,1049.3265 288.3457,1039.2855 C240.6557,1032.4745 204.8047,1012.7325 182.5157,996.6815 C175.1657,991.3885 168.8257,986.1975 163.4897,981.4455" id="Fill-29" fill="#A9D386"></path>
            <path d="M704.394,979.4455 C678.443,1019.0625 644.655,1045.6115 616.456,1052.3455 C600.461,1055.7245 580.94,1047.3265 564.531,1037.2855 C617.953,1030.4745 658.113,1010.7325 683.081,994.6815 C691.314,989.3885 698.416,984.1975 704.394,979.4455" id="Fill-31" fill="#86B85C"></path>
            <path d="M708.394,981.4455 C685.228,1021.0625 655.064,1047.6115 629.891,1054.3455 C615.613,1057.7245 598.185,1049.3265 583.538,1039.2855 C631.227,1032.4745 667.079,1012.7325 689.367,996.6815 C696.717,991.3885 703.058,986.1975 708.394,981.4455" id="Fill-33" fill="#A9D386"></path>
            <path d="M130.269,589.7145 C130.269,589.7145 118.437,682.1135 121.465,715.8905 C121.465,715.8905 101.679,773.0765 102.568,800.3345 L94.243,798.8455 C94.243,798.8455 108.79,839.8905 79.902,863.4455 C51.012,887.0025 31.054,866.0255 31.054,866.0255 L35.235,878.5565 L63.902,891.0025 L96.79,884.7795 L115.902,863.8905 L119.457,820.3345 L133.924,749.9575 L143.055,716.7795 L146.077,651.7095 L150.346,585.9865 L149.012,574.5575 L130.269,589.7145" id="Fill-35" fill="#86B85C"></path>
            <path d="M743.3188,589.7145 C743.3188,589.7145 755.1508,682.1135 752.1228,715.8905 C752.1228,715.8905 771.9088,773.0765 771.0198,800.3345 L779.3438,798.8455 C779.3438,798.8455 764.7978,839.8905 793.6858,863.4455 C822.5748,887.0025 842.5338,866.0255 842.5338,866.0255 L838.3528,878.5565 L809.6858,891.0025 L776.7978,884.7795 L757.6858,863.8905 L754.1308,820.3345 L739.6618,749.9575 L730.5318,716.7795 L727.5098,651.7095 L723.2418,585.9865 L724.5748,574.5575 L743.3188,589.7145" id="Fill-37" fill="#86B85C"></path>
            <path d="M152.2798,575.5104 C152.2798,575.5104 140.7908,703.4454 143.4578,715.8904" id="Stroke-39" stroke="#314520" stroke-width="10" stroke-linecap="round" stroke-linejoin="round"></path>
            <path d="M179.9019,645.7013 C179.9019,645.7013 122.1239,728.3343 121.2349,839.4453 C120.3459,950.5563 194.5369,1043.0023 254.3309,1057.2243 C291.9019,1065.2243 344.9389,1015.1503 344.9389,1015.1503" id="Stroke-41" stroke="#314520" stroke-width="10" stroke-linecap="round" stroke-linejoin="round"></path>
            <path d="M121.4653,852.0353 C121.4653,852.0353 142.8633,935.1503 278.5693,954.1133" id="Stroke-43" stroke="#314520" stroke-width="10" stroke-linecap="round" stroke-linejoin="round"></path>
            <path d="M147.5229,954.1134 C147.5229,954.1134 206.7349,1024.5314 321.7619,1033.7654" id="Stroke-45" stroke="#314520" stroke-width="10" stroke-linecap="round" stroke-linejoin="round"></path>
            <path d="M147.5229,570.4655 C147.5229,570.4655 62.8649,657.8165 44.7919,738.1135 C28.7579,747.1835 -41.4321,816.0395 35.0119,875.8905 C106.1239,922.1135 147.6689,831.4455 99.0119,800.3345" id="Stroke-47" stroke="#314520" stroke-width="10" stroke-linecap="round" stroke-linejoin="round"></path>
            <path d="M720.1899,575.5104 C720.1899,575.5104 731.6789,703.4454 729.0119,715.8904" id="Stroke-49" stroke="#314520" stroke-width="10" stroke-linecap="round" stroke-linejoin="round"></path>
            <path d="M692.5679,645.7013 C692.5679,645.7013 750.3459,728.3343 751.2349,839.4453 C752.1239,950.5563 677.9329,1043.0023 618.1389,1057.2243 C580.5679,1065.2243 527.5309,1015.1503 527.5309,1015.1503" id="Stroke-51" stroke="#314520" stroke-width="10" stroke-linecap="round" stroke-linejoin="round"></path>
            <path d="M751.0044,852.0353 C751.0044,852.0353 729.6054,935.1503 593.9004,954.1133" id="Stroke-53" stroke="#314520" stroke-width="10" stroke-linecap="round" stroke-linejoin="round"></path>
            <path d="M724.9468,954.1134 C724.9468,954.1134 665.7348,1024.5314 550.7078,1033.7654" id="Stroke-55" stroke="#314520" stroke-width="10" stroke-linecap="round" stroke-linejoin="round"></path>
            <path d="M724.9468,570.4655 C724.9468,570.4655 809.6048,657.8165 827.6778,738.1135 C843.7108,747.1835 913.9018,816.0395 837.4578,875.8905 C766.3458,922.1135 724.8008,831.4455 773.4578,800.3345" id="Stroke-57" stroke="#314520" stroke-width="10" stroke-linecap="round" stroke-linejoin="round"></path>
            <path d="M660.8657,620.1706 C648.1237,634.1136 596.3867,673.2246 564.4767,684.7796 C532.5677,696.3346 512.1237,703.8906 494.3457,719.4456 C476.5677,735.0026 436.2347,803.2226 436.2347,966.3346 C436.2347,803.2226 395.9017,735.0026 378.1237,719.4456 C360.3457,703.8906 339.9017,696.3346 307.9927,684.7796 C276.0827,673.2246 224.3457,634.1136 211.6037,620.1706" id="Stroke-59" stroke="#314520" stroke-width="10" stroke-linecap="round" stroke-linejoin="round"></path>
            <path d="M282.7534,1000.1505 C282.7534,1000.1505 329.4574,1017.6685 436.2344,1017.6685 C543.0124,1017.6685 589.7164,1000.1505 589.7164,1000.1505" id="Stroke-61" stroke="#314520" stroke-width="10" stroke-linecap="round" stroke-linejoin="round"></path>
            <path d="M307.939,958.2619 C307.939,958.2619 360.792,966.3339 436.235,966.3339 C511.679,966.3339 564.531,958.2619 564.531,958.2619" id="Stroke-63" stroke="#314520" stroke-width="10" stroke-linecap="round" stroke-linejoin="round"></path>
            <path d="M364.229,737.1603 C367.836,741.3593 369.465,745.8753 367.87,747.2483 C366.272,748.6193 362.053,746.3283 358.446,742.1273 C354.836,737.9283 353.208,733.4103 354.805,732.0393 C356.402,730.6683 360.622,732.9593 364.229,737.1603" id="Fill-65" fill="#314520"></path>
            <path d="M508.2407,737.1603 C504.6337,741.3593 503.0037,745.8753 504.5997,747.2483 C506.1977,748.6193 510.4167,746.3283 514.0237,742.1273 C517.6327,737.9283 519.2617,733.4103 517.6647,732.0393 C516.0677,730.6683 511.8477,732.9593 508.2407,737.1603" id="Fill-67" fill="#314520"></path>
            <path d="M436.2349,667.8908 C833.9019,667.8908 841.0119,364.7798 697.9019,193.2238 C569.9019,31.8908 436.2349,40.6318 436.2349,40.6318 C436.2349,40.6318 302.5679,31.8908 174.5679,193.2238 C31.4579,364.7798 38.5679,667.8908 436.2349,667.8908" id="Fill-69" fill="#86B85C"></path>
            <path d="M436.2349,634.4963 C825.7479,634.4963 832.7129,348.1013 692.5359,186.0083 C567.1609,33.5733 436.2349,41.8303 436.2349,41.8303 C436.2349,41.8303 305.3089,33.5733 179.9339,186.0083 C39.7559,348.1013 46.7209,634.4963 436.2349,634.4963" id="Fill-71" fill="#A9D386"></path>
            <path d="M95.8569,354.2194 C83.9019,339.0014 35.0119,283.0014 35.0119,223.4464 C35.0119,163.8904 57.2349,102.5574 82.1239,104.3354 C107.0119,106.1134 103.4579,126.5574 118.5679,131.8904 C133.6779,137.2234 174.1259,135.6804 185.0119,180.4524" id="Fill-73" fill="#A9D386"></path>
            <path d="M776.6128,354.2194 C788.5678,339.0014 837.4578,283.0014 837.4578,223.4464 C837.4578,163.8904 815.2348,102.5574 790.3458,104.3354 C765.4578,106.1134 769.0118,126.5574 753.9018,131.8904 C738.7908,137.2234 698.3438,135.6804 687.4568,180.4524" id="Fill-75" fill="#A9D386"></path>
            <path d="M436.2349,497.8166 C516.7909,497.8166 569.0119,440.9276 556.5679,405.3726 C544.1239,369.8166 490.7909,356.7796 436.2349,356.7796 C381.6779,356.7796 328.3459,369.8166 315.9019,405.3726 C303.4579,440.9276 355.6779,497.8166 436.2349,497.8166" id="Fill-77" fill="#86B85C"></path>
            <path d="M211.604,524.3332 C211.604,524.3332 247.752,465.8162 269.086,468.1872 C286.568,469.9642 299.411,512.3522 296.693,543.7502" id="Fill-79" fill="#C1C6BD"></path>
            <path d="M299.0122,544.1559 C299.0122,544.1559 318.1232,517.2239 332.3462,517.2239 C346.5682,517.2239 359.9022,552.5259 359.9022,552.5259" id="Fill-81" fill="#C1C6BD"></path>
            <path d="M436.2349,470.1129 C514.5579,470.1129 565.3339,424.2579 553.2339,395.5979 C541.1329,366.9389 489.2789,356.4299 436.2349,356.4299 C383.1909,356.4299 331.3369,366.9389 319.2369,395.5979 C307.1369,424.2579 357.9119,470.1129 436.2349,470.1129" id="Fill-83" fill="#A9D386"></path>
            <path d="M73.7622,106.0915 C58.4572,125.1125 50.3552,185.2235 67.3092,235.0015 C84.2632,284.7795 110.4732,298.9855 110.4732,298.9855 L112.3462,303.7425 L98.4202,354.2195 L74.4202,329.8165 L56.2732,297.1505 L38.2182,250.7475 L35.0122,196.1865 L49.2482,140.8515 L59.7832,119.7595 L73.7622,106.0915" id="Fill-85" fill="#86B85C"></path>
            <path d="M799.6255,106.0915 C814.9305,125.1125 823.0325,185.2235 806.0785,235.0015 C789.1235,284.7795 762.9145,298.9855 762.9145,298.9855 L761.0415,303.7425 L774.9675,354.2195 L798.9675,329.8165 L817.1135,297.1505 L835.1685,250.7475 L838.3745,196.1865 L824.1375,140.8515 L813.6045,119.7595 L799.6255,106.0915" id="Fill-87" fill="#86B85C"></path>
            <path d="M243.2349,528.5573 C242.1239,505.9333 264.0799,467.8163 278.3479,470.1863 C290.0419,471.9643 298.6309,514.3513 296.8129,545.7503" id="Fill-89" fill="#FEFEFE"></path>
            <path d="M320.4448,546.1559 C318.9008,539.5939 328.7918,519.2239 341.4988,519.2239 C350.4798,519.2239 358.9018,554.5259 358.9018,554.5259" id="Fill-91" fill="#FEFEFE"></path>
            <path d="M660.562,524.3332 C660.562,524.3332 624.413,465.8162 603.08,468.1872 C585.598,469.9642 572.755,512.3522 575.473,543.7502" id="Fill-93" fill="#C1C6BD"></path>
            <path d="M573.1538,544.1559 C573.1538,544.1559 554.0428,517.2239 539.8198,517.2239 C525.5978,517.2239 512.2638,552.5259 512.2638,552.5259" id="Fill-95" fill="#C1C6BD"></path>
            <path d="M628.9312,528.5573 C630.0422,505.9333 608.0862,467.8163 593.8172,470.1863 C582.1242,471.9643 573.5352,514.3513 575.3532,545.7503" id="Fill-97" fill="#FEFEFE"></path>
            <path d="M551.7212,546.1559 C553.2652,539.5939 543.3752,519.2239 530.6682,519.2239 C521.6862,519.2239 513.2642,554.5259 513.2642,554.5259" id="Fill-99" fill="#FEFEFE"></path>
            <path d="M436.2349,667.8908 C833.9019,667.8908 841.0119,364.7798 697.9019,193.2238 C569.9019,31.8908 436.2349,40.6318 436.2349,40.6318 C436.2349,40.6318 302.5679,31.8908 174.5679,193.2238 C31.4579,364.7798 38.5679,667.8908 436.2349,667.8908 Z" id="Stroke-101" stroke="#314520" stroke-width="10" stroke-linecap="round" stroke-linejoin="round"></path>
            <path d="M95.8569,354.2194 C83.9019,339.0014 35.0119,283.0014 35.0119,223.4464 C35.0119,163.8904 57.2349,102.5574 82.1239,104.3354 C107.0119,106.1134 103.4579,126.5574 118.5679,131.8904 C133.6779,137.2234 174.1259,135.6804 185.0119,180.4524" id="Stroke-103" stroke="#314520" stroke-width="10" stroke-linecap="round" stroke-linejoin="round"></path>
            <path d="M85.9751,244.1867 C85.9751,244.1867 76.7971,198.6407 100.1981,165.9647" id="Stroke-105" stroke="#314520" stroke-width="10" stroke-linecap="round" stroke-linejoin="round"></path>
            <path d="M117.9751,218.1129 C117.9751,218.1129 92.0341,215.6359 84.8561,209.7629" id="Stroke-107" stroke="#314520" stroke-width="10" stroke-linecap="round" stroke-linejoin="round"></path>
            <path d="M302.7144,116.2189 C287.0124,123.8909 251.4174,133.4419 242.7724,122.1479 C234.1234,110.8539 225.9544,65.9989 227.9014,75.4459 C229.8484,84.8929 217.3994,21.1359 243.7614,6.9579 C270.1234,-7.2201 288.0494,5.3719 309.3834,29.0759 C330.7164,52.7799 345.5294,70.5569 340.7904,78.8539 C336.0494,87.1499 318.4154,108.5479 302.7144,116.2189" id="Fill-109" fill="#314520"></path>
            <path d="M263.9019,283.2712 C263.9019,323.8692 285.3919,356.7792 311.9019,356.7792 C338.4119,356.7792 359.9019,323.8692 359.9019,283.2712 C359.9019,242.6742 338.4119,209.7632 311.9019,209.7632 C285.3919,209.7632 263.9019,242.6742 263.9019,283.2712" id="Fill-111" fill="#314520"></path>
            <path d="M347.0122,262.5573 C347.0122,275.8123 336.2672,286.5573 323.0122,286.5573 C309.7572,286.5573 299.0122,275.8123 299.0122,262.5573 C299.0122,249.3023 309.7572,238.5573 323.0122,238.5573 C336.2672,238.5573 347.0122,249.3023 347.0122,262.5573" id="Fill-113" fill="#FEFEFE"></path>
            <path d="M309.3833,308.1867 C309.3833,313.9147 304.7383,318.5577 299.0123,318.5577 C293.2853,318.5577 288.6423,313.9147 288.6423,308.1867 C288.6423,302.4597 293.2853,297.8167 299.0123,297.8167 C304.7383,297.8167 309.3833,302.4597 309.3833,308.1867" id="Fill-115" fill="#FEFEFE"></path>
            <path d="M512.5679,283.2712 C512.5679,323.8692 534.0579,356.7792 560.5679,356.7792 C587.0779,356.7792 608.5679,323.8692 608.5679,283.2712 C608.5679,242.6742 587.0779,209.7632 560.5679,209.7632 C534.0579,209.7632 512.5679,242.6742 512.5679,283.2712" id="Fill-117" fill="#314520"></path>
            <path d="M595.6792,262.5573 C595.6792,275.8123 584.9342,286.5573 571.6792,286.5573 C558.4242,286.5573 547.6792,275.8123 547.6792,262.5573 C547.6792,249.3023 558.4242,238.5573 571.6792,238.5573 C584.9342,238.5573 595.6792,249.3023 595.6792,262.5573" id="Fill-119" fill="#FEFEFE"></path>
            <path d="M558.0493,308.1867 C558.0493,313.9147 553.4063,318.5577 547.6793,318.5577 C541.9513,318.5577 537.3093,313.9147 537.3093,308.1867 C537.3093,302.4597 541.9513,297.8167 547.6793,297.8167 C553.4063,297.8167 558.0493,302.4597 558.0493,308.1867" id="Fill-121" fill="#FEFEFE"></path>
            <path d="M323.0122,444.1037 C323.0122,444.1037 302.5682,456.6317 309.3832,469.6687 C316.1982,482.7057 330.6622,483.0017 347.0602,469.6687" id="Stroke-123" stroke="#314520" stroke-width="10" stroke-linecap="round" stroke-linejoin="round"></path>
            <path d="M196.5308,519.7423 C196.5308,519.7423 305.9018,556.4833 436.2348,556.4833 C566.5678,556.4833 675.9388,519.7423 675.9388,519.7423" id="Stroke-125" stroke="#314520" stroke-width="10" stroke-linecap="round" stroke-linejoin="round"></path>
            <path d="M211.604,524.3332 C211.604,524.3332 247.752,465.8162 269.086,468.1872 C286.568,469.9642 299.411,512.3522 296.693,543.7502" id="Stroke-127" stroke="#314520" stroke-width="10" stroke-linecap="round" stroke-linejoin="round"></path>
            <path d="M299.0122,544.1559 C299.0122,544.1559 318.1232,517.2239 332.3462,517.2239 C346.5682,517.2239 359.9022,552.5259 359.9022,552.5259" id="Stroke-129" stroke="#314520" stroke-width="10" stroke-linecap="round" stroke-linejoin="round"></path>
            <path d="M776.6128,354.2194 C788.5678,339.0014 837.4578,283.0014 837.4578,223.4464 C837.4578,163.8904 815.2348,102.5574 790.3458,104.3354 C765.4578,106.1134 769.0118,126.5574 753.9018,131.8904 C738.7908,137.2234 698.3438,135.6804 687.4568,180.4524" id="Stroke-131" stroke="#314520" stroke-width="10" stroke-linecap="round" stroke-linejoin="round"></path>
            <path d="M786.4946,244.1867 C786.4946,244.1867 795.6726,198.6407 772.2716,165.9647" id="Stroke-133" stroke="#314520" stroke-width="10" stroke-linecap="round" stroke-linejoin="round"></path>
            <path d="M754.4946,218.1129 C754.4946,218.1129 780.4356,215.6359 787.6136,209.7629" id="Stroke-135" stroke="#314520" stroke-width="10" stroke-linecap="round" stroke-linejoin="round"></path>
            <path d="M569.7554,116.2189 C585.4574,123.8909 621.0524,133.4419 629.6984,122.1479 C638.3464,110.8539 646.5154,65.9989 644.5684,75.4459 C642.6214,84.8929 655.0704,21.1359 628.7084,6.9579 C602.3464,-7.2201 584.4204,5.3719 563.0864,29.0759 C541.7534,52.7799 526.9394,70.5569 531.6794,78.8539 C536.4204,87.1499 554.0544,108.5479 569.7554,116.2189" id="Fill-137" fill="#314520"></path>
            <path d="M436.2349,497.8166 C516.7909,497.8166 569.0119,440.9276 556.5679,405.3726 C544.1239,369.8166 490.7909,356.7796 436.2349,356.7796 C381.6779,356.7796 328.3459,369.8166 315.9019,405.3726 C303.4579,440.9276 355.6779,497.8166 436.2349,497.8166 Z" id="Stroke-139" stroke="#314520" stroke-width="10" stroke-linecap="round" stroke-linejoin="round"></path>
            <path d="M549.4575,444.1037 C549.4575,444.1037 569.9015,456.6317 563.0865,469.6687 C556.2715,482.7057 541.8075,483.0017 525.4095,469.6687" id="Stroke-141" stroke="#314520" stroke-width="10" stroke-linecap="round" stroke-linejoin="round"></path>
            <path d="M660.8657,524.3332 C660.8657,524.3332 624.7167,465.8162 603.3837,468.1872 C585.9017,469.9642 573.0587,512.3522 575.7767,543.7502" id="Stroke-143" stroke="#314520" stroke-width="10" stroke-linecap="round" stroke-linejoin="round"></path>
            <path d="M573.4575,544.1559 C573.4575,544.1559 554.3465,517.2239 540.1235,517.2239 C525.9015,517.2239 512.5675,552.5259 512.5675,552.5259" id="Stroke-145" stroke="#314520" stroke-width="10" stroke-linecap="round" stroke-linejoin="round"></path>
            <path d="M374.3052,602.1129 C374.3052,602.1129 395.3832,623.4459 436.2352,623.4459 C477.0862,623.4459 498.1642,602.1129 498.1642,602.1129" id="Stroke-147" stroke="#314520" stroke-width="10" stroke-linecap="round" stroke-linejoin="round"></path>
            <path d="M374.3052,140.3351 C374.3052,140.3351 395.3832,161.6681 436.2352,161.6681 C477.0862,161.6681 498.1642,140.3351 498.1642,140.3351" id="Stroke-149" stroke="#314520" stroke-width="10" stroke-linecap="round" stroke-linejoin="round"></path>
            <path d="M399.8276,254.2463 C399.8276,254.2463 412.2196,260.3353 436.2346,260.3353 C460.2506,260.3353 472.6406,254.2463 472.6406,254.2463" id="Stroke-151" stroke="#86B85C" stroke-width="10" stroke-linecap="round" stroke-linejoin="round"></path>
            <path d="M280.1235,155.0016 C280.1235,155.0016 382.9375,228.7796 436.2345,228.7796 C489.5305,228.7796 592.3465,155.0016 592.3465,155.0016" id="Stroke-153" stroke="#314520" stroke-width="10" stroke-linecap="round" stroke-linejoin="round"></path>
        </g>
    </g>
</svg>